<?xml version="1.0" standalone="no"?>
<!DOCTYPE svg PUBLIC "-//W3C//DTD SVG 20010904//EN"
 "http://www.w3.org/TR/2001/REC-SVG-20010904/DTD/svg10.dtd">
<svg version="1.0" xmlns="http://www.w3.org/2000/svg"
 width="512.000000pt" height="512.000000pt" viewBox="0 0 512.000000 512.000000"
 preserveAspectRatio="xMidYMid meet">

<g transform="translate(0.000000,512.000000) scale(0.100000,-0.100000)"
fill="#000000" stroke="none">
<path d="M1060 5109 c-25 -5 -76 -24 -115 -43 -162 -80 -262 -250 -280 -476
-8 -93 12 -133 72 -149 23 -7 176 -11 398 -11 l360 0 148 -583 147 -583 0
-155 0 -155 -71 -102 c-94 -137 -100 -187 -28 -231 23 -14 39 -17 65 -11 46
11 50 14 124 124 l65 95 113 1 c61 0 112 -4 112 -9 0 -5 -16 -76 -36 -158
-136 -567 -224 -1410 -224 -2148 0 -122 -3 -243 -6 -269 l-7 -46 -338 0 -339
0 0 133 c0 379 58 869 146 1227 19 80 67 238 105 353 67 202 69 208 54 242
-25 62 -105 80 -153 35 -46 -43 -170 -429 -231 -716 -54 -257 -90 -528 -111
-832 -13 -201 -13 -567 0 -593 28 -51 -45 -49 1530 -49 1575 0 1502 -2 1530
49 15 29 12 381 -5 642 -58 882 -283 1586 -696 2178 l-59 84 0 156 0 155 148
583 147 583 360 0 c222 0 375 4 398 11 60 16 80 56 72 149 -18 227 -118 395
-281 476 -221 110 -493 37 -624 -166 -24 -37 -88 -191 -90 -217 0 -1 -27 5
-60 13 -277 64 -596 -14 -805 -198 l-35 -30 -35 30 c-209 184 -528 262 -805
198 -33 -8 -60 -14 -60 -13 0 1 -13 39 -29 84 -35 102 -78 169 -144 229 -113
101 -271 143 -427 113z m196 -204 c69 -20 127 -73 163 -148 16 -34 32 -74 35
-89 l6 -28 -295 0 -295 0 6 28 c44 191 203 290 380 237z m2828 -16 c27 -13 62
-39 78 -58 32 -36 71 -114 82 -163 l6 -28 -295 0 -295 0 6 28 c3 15 19 55 35
89 35 73 93 127 159 148 64 21 165 14 224 -16z m-2022 -384 c155 -33 296 -106
361 -188 123 -156 151 -156 273 -1 99 125 340 214 544 200 87 -5 169 -22 185
-37 5 -6 -41 -208 -49 -217 -2 -1 -32 4 -67 13 -228 53 -493 -26 -681 -203
l-68 -64 -68 64 c-188 177 -453 256 -681 203 -35 -9 -65 -14 -67 -13 -7 8 -54
210 -50 217 4 6 51 19 131 35 49 9 170 5 237 -9z m32 -430 c135 -35 271 -134
362 -261 47 -66 59 -74 104 -74 45 0 57 8 104 74 91 127 227 226 362 261 108
28 294 14 294 -23 0 -9 -38 -165 -85 -348 -47 -183 -85 -336 -85 -339 0 -3
-265 -5 -590 -5 -324 0 -590 2 -590 5 0 3 -38 156 -85 339 -47 183 -85 339
-85 348 0 36 188 50 294 23z m1036 -980 l0 -65 -570 0 -570 0 0 65 0 65 570 0
570 0 0 -65z m-381 -302 c107 -385 192 -942 234 -1537 l13 -189 32 -28 c36
-32 69 -36 110 -15 56 29 57 42 38 309 -39 554 -113 1042 -221 1470 l-7 27
113 0 114 0 72 -108 c273 -409 446 -835 552 -1357 58 -287 101 -721 101 -1022
l0 -143 -339 0 -338 0 -7 61 c-3 34 -6 94 -6 134 0 64 -3 75 -25 98 -34 33
-72 40 -115 19 -51 -25 -64 -70 -56 -204 l6 -108 -457 0 -458 0 3 232 c10 957
94 1711 263 2361 l10 37 179 0 179 0 10 -37z"/>
<path d="M3060 795 c-85 -46 -51 -185 46 -185 46 0 80 24 94 65 15 44 4 80
-32 110 -33 28 -70 31 -108 10z"/>
<path d="M1503 2458 c-25 -12 -53 -64 -53 -98 0 -31 62 -90 94 -90 93 0 141
107 77 171 -31 31 -76 37 -118 17z"/>
</g>
</svg>
