<?xml version="1.0" standalone="no"?>
<!DOCTYPE svg PUBLIC "-//W3C//DTD SVG 20010904//EN"
 "http://www.w3.org/TR/2001/REC-SVG-20010904/DTD/svg10.dtd">
<svg version="1.0" xmlns="http://www.w3.org/2000/svg"
 width="626.000000pt" height="626.000000pt" viewBox="0 0 626.000000 626.000000"
 preserveAspectRatio="xMidYMid meet">

<g transform="translate(0.000000,626.000000) scale(0.100000,-0.100000)"
fill="#000000" stroke="none">
<path d="M2465 6083 c-49 -6 -73 -23 -133 -97 -97 -119 -160 -182 -210 -208
-48 -26 -701 -234 -962 -307 -238 -66 -347 -119 -444 -217 -121 -123 -196
-285 -287 -619 -102 -373 -171 -811 -214 -1355 -8 -107 -24 -292 -35 -409 -18
-197 -20 -296 -20 -1170 0 -526 3 -966 6 -978 3 -12 18 -30 33 -40 24 -17 62
-18 463 -21 311 -2 444 0 459 8 49 27 49 18 49 935 l0 856 35 277 c39 298 93
668 102 692 7 21 28 -41 59 -175 39 -169 80 -343 123 -530 23 -93 41 -182 41
-197 0 -15 -14 -112 -30 -215 -17 -103 -42 -258 -55 -343 -25 -154 -47 -336
-105 -880 -17 -157 -42 -383 -55 -503 -28 -244 -30 -295 -13 -332 20 -45 55
-48 543 -42 410 5 458 7 545 26 242 54 414 145 561 298 66 68 154 192 178 251
8 18 17 32 21 32 5 0 23 -25 41 -56 151 -265 393 -447 684 -514 121 -27 439
-42 818 -38 264 3 298 5 313 20 26 25 29 112 10 268 -9 74 -23 207 -31 295
-26 270 -75 729 -80 745 -5 18 -87 566 -131 875 l-17 120 32 135 c57 239 69
292 111 470 62 265 74 310 82 302 4 -4 19 -88 33 -187 14 -99 32 -218 40 -265
8 -47 27 -173 42 -280 l28 -195 0 -890 c0 -490 4 -900 8 -913 5 -12 17 -27 28
-32 12 -7 178 -11 471 -10 440 0 453 1 473 20 20 20 20 34 23 978 2 608 -1
1001 -8 1077 -6 66 -24 282 -40 480 -44 521 -85 831 -140 1060 -16 66 -50 206
-75 310 -68 284 -108 392 -211 567 -96 163 -186 210 -709 368 -203 61 -444
133 -535 161 -266 80 -277 86 -388 224 -79 98 -123 144 -154 161 -23 12 -134
14 -685 13 -362 -1 -671 -4 -688 -6z m1155 -191 c0 -5 -64 -67 -142 -138 -79
-71 -187 -171 -240 -222 -66 -64 -101 -91 -110 -86 -34 21 -467 438 -462 445
7 11 954 12 954 1z m-1109 -129 c71 -60 444 -417 447 -429 1 -5 -36 -41 -83
-78 -47 -37 -110 -90 -139 -117 l-55 -50 -39 68 c-101 173 -212 460 -212 548
0 43 16 95 30 95 3 0 26 -17 51 -37z m1317 -58 c3 -44 -1 -82 -13 -117 -13
-42 -208 -461 -221 -477 -9 -10 -51 21 -163 118 -67 57 -121 109 -120 115 0 6
109 111 242 233 272 249 268 247 275 128z m-1558 -277 c33 -166 99 -459 110
-488 5 -14 30 -95 55 -180 26 -85 53 -173 60 -195 8 -22 44 -139 81 -260 36
-121 95 -314 131 -430 36 -115 75 -244 88 -285 13 -41 46 -144 73 -227 27 -84
48 -153 46 -153 -1 0 -63 78 -136 173 -124 161 -391 502 -710 907 -76 96 -138
180 -138 186 0 7 57 65 127 130 143 135 203 205 203 240 0 35 -51 80 -220 194
-83 57 -153 106 -155 110 -8 12 336 390 354 390 4 0 18 -51 31 -112z m1809 74
c76 -79 296 -336 296 -345 0 -6 -72 -59 -160 -119 -183 -124 -205 -145 -205
-194 0 -32 13 -49 111 -152 61 -65 134 -139 161 -166 32 -31 46 -52 40 -60 -5
-6 -189 -243 -408 -526 -220 -283 -435 -561 -478 -618 -44 -56 -81 -100 -83
-98 -2 2 45 152 106 332 102 307 128 388 196 619 15 50 35 117 45 150 10 33
40 132 65 220 26 88 66 225 90 305 23 80 57 208 74 285 67 298 94 405 104 405
5 0 26 -17 46 -38z m511 -72 c85 -27 209 -65 275 -85 312 -96 435 -136 435
-144 0 -5 -7 -14 -15 -21 -23 -19 -109 -158 -143 -231 -94 -201 -147 -383
-237 -814 -49 -234 -82 -383 -176 -775 -187 -783 -191 -801 -185 -865 4 -33
20 -132 36 -220 42 -230 49 -270 45 -273 -2 -2 -45 -12 -97 -22 -51 -11 -172
-37 -268 -58 -96 -22 -211 -48 -254 -57 -54 -12 -86 -25 -103 -41 l-24 -24 3
-204 c3 -190 5 -207 24 -233 26 -35 65 -40 159 -19 39 9 122 27 185 40 63 14
189 41 279 61 90 20 165 34 167 33 1 -2 12 -93 23 -203 40 -390 81 -781 87
-828 l7 -48 -429 3 c-427 4 -429 4 -514 30 -174 53 -302 130 -414 249 -156
164 -236 351 -255 592 -6 68 -11 424 -11 792 l-1 668 34 36 c37 40 79 92 307
381 85 107 204 258 265 335 468 590 721 918 749 974 13 25 14 36 5 54 -6 12
-78 90 -161 173 l-149 150 159 106 c180 120 232 162 232 188 0 27 -43 85 -174
228 -66 74 -122 138 -124 143 -4 9 32 0 258 -71z m-2696 18 c-175 -185 -222
-237 -238 -271 -34 -72 -22 -85 229 -256 l139 -94 -156 -151 c-86 -83 -159
-159 -162 -169 -3 -10 1 -32 8 -50 8 -18 300 -398 649 -846 l634 -814 6 -851
c6 -961 9 -918 -73 -1081 -80 -160 -202 -279 -374 -365 -181 -90 -197 -93
-684 -97 l-423 -4 6 33 c3 18 19 164 35 323 64 637 72 710 79 718 8 8 54 -1
281 -54 291 -67 396 -89 426 -89 42 0 81 33 94 78 14 50 13 377 -1 404 -17 32
-82 54 -279 92 -102 20 -245 51 -318 67 l-134 31 7 52 c4 28 20 132 37 231 36
219 37 281 5 410 -13 55 -36 150 -51 210 -14 61 -60 254 -101 430 -88 368
-140 597 -185 810 -45 212 -96 425 -127 525 -56 184 -142 373 -220 484 -19 26
-31 52 -26 55 4 4 87 31 183 60 96 29 218 66 270 82 398 121 487 147 500 148
8 1 -8 -23 -36 -51z m-1041 -395 c63 -92 203 -447 251 -638 33 -132 106 -501
106 -537 0 -21 -12 -87 -26 -146 -14 -59 -36 -170 -49 -247 -155 -906 -147
-826 -152 -1572 l-4 -613 -315 0 -314 0 0 676 c0 727 8 924 56 1404 14 140 34
309 44 375 78 499 103 628 155 825 36 133 69 234 104 315 28 65 103 195 111
195 4 0 19 -17 33 -37z m4671 -88 c105 -213 213 -670 286 -1215 11 -80 26
-188 34 -240 8 -52 20 -174 26 -270 6 -96 17 -265 25 -375 9 -132 15 -431 17
-880 l3 -680 -317 -3 -318 -2 0 583 c0 469 -3 606 -15 698 -9 63 -27 204 -40
314 -14 110 -57 362 -96 560 -39 198 -74 380 -76 405 -3 30 10 116 37 250 96
471 178 714 307 915 l45 69 24 -29 c13 -17 39 -61 58 -100z m-2683 -290 c-12
-88 -28 -207 -36 -265 -8 -58 -15 -127 -15 -153 0 -64 -14 -52 -30 25 -6 35
-22 97 -35 138 -64 207 -155 518 -155 528 0 6 13 -3 29 -19 43 -42 86 -40 148
9 l48 39 33 -71 34 -71 -21 -160z m644 285 c10 -16 102 -60 126 -60 12 0 37
17 57 38 20 20 33 30 30 21 -9 -24 -204 -678 -213 -714 l-8 -30 -7 25 c-5 14
-8 50 -9 80 -1 30 -12 134 -26 230 -32 229 -32 274 3 355 27 65 35 74 47 55z
m-1705 -3175 c85 -19 214 -48 285 -64 l130 -28 3 -78 3 -78 -48 7 c-26 3 -97
17 -158 31 -60 13 -175 38 -255 55 -80 18 -146 32 -147 33 -4 5 21 157 26 157
3 0 76 -16 161 -35z m2869 13 c5 -13 11 -48 15 -78 l7 -56 -123 -27 c-365 -80
-449 -97 -467 -97 -19 0 -21 6 -21 75 0 69 2 75 23 80 12 3 105 24 207 46 102
23 219 50 260 59 41 10 78 18 83 19 4 0 11 -9 16 -21z m-3671 -816 l3 -132
-313 2 -313 3 -3 119 c-1 66 0 126 2 133 4 11 65 13 313 11 l308 -3 3 -133z
m4936 12 c5 -72 4 -130 -1 -135 -5 -5 -145 -8 -319 -7 l-309 3 -3 127 -3 128
203 3 c112 1 253 3 314 5 l111 2 7 -126z"/>
<path d="M3340 2628 c-28 -19 -36 -31 -38 -61 -6 -74 87 -126 144 -79 48 38
56 87 22 127 -33 37 -84 43 -128 13z"/>
<path d="M3336 2138 c-54 -49 -24 -140 50 -148 41 -5 57 1 85 31 37 39 38 81
4 114 -33 34 -103 35 -139 3z"/>
<path d="M3356 1675 c-38 -20 -55 -44 -56 -77 0 -41 38 -78 86 -85 33 -4 45
-1 72 22 50 42 42 109 -18 140 -36 19 -48 19 -84 0z"/>
</g>
</svg>
